<?xml version="1.0" encoding="UTF-8"?>
<svg id="Capa_2" data-name="Capa 2" xmlns="http://www.w3.org/2000/svg" viewBox="0 0 112.72 112.58">
  <defs>
    <style>
      .cls-1 {
        fill: #1e2337;
      }
    </style>
  </defs>
  <g id="cards_section_2" data-name="cards section 2">
    <g>
      <path class="cls-1" d="M55.14.02c40.79-1.07,69.02,40.92,53.03,78.52-16.48,38.75-68.62,46.06-95.37,13.43C-16.97,55.65,8.5,1.24,55.14.02ZM53.43,3.94C10.7,6.51-11.38,56.55,15.99,89.76c24.66,29.93,72.53,23.33,88.26-11.96C120.23,41.98,92.51,1.59,53.43,3.94Z"/>
      <path class="cls-1" d="M88.22,33.1c3.88-.44,7.3.42,8.68,4.41,1.89,5.47-1.92,8.23-5.71,11.05-4.62,3.44-9.69,6.27-14.32,9.7-4.68,6.45-3.65,12.6-13.71,11.77-6.35-.53-10.39-4.38-15.82-5.99-2.36-.7-3.48-.57-5.39.97-7.11,5.76-10.7,15.12-21.62,13.54-4.53-.65-5.87-5.59-4.08-9.34,1.4-2.92,9.59-9.35,12.46-11.8,3.44-2.92,11.43-10.54,15.6-10.87,5.79-.45,12.26,6.81,17.26,5.74,2.71-.58,4.67-5.98,6.26-8.2,3.19-4.47,14.95-10.36,20.39-10.98ZM36.41,64.98c4.07-3.92,6.61-6.52,12.65-4.37,5.35,1.9,11.19,6.57,17.26,5.73,3.24-.45,4.28-5.25,5.74-7.74,3.18-5.44,12.05-9.43,17.27-13.36,2.34-1.77,5.07-3.24,3.9-6.75-.98-2.94-5.82-1.44-7.96-.74-4.43,1.44-12.17,5.42-14.74,9.27-3.13,4.69-4.22,9.76-11.29,9.05-4.55-.46-9.73-5.25-13.48-5.63-3.32-.34-6.84,3.36-9.31,5.4-5.27,4.35-10.25,9.06-15.57,13.34-4.66,5.52,1.27,7.05,5.96,4.98,2.72-1.2,7.21-6.9,9.58-9.17Z"/>
    </g>
  </g>
</svg>