<?xml version="1.0" encoding="UTF-8"?>
<svg id="Capa_2" data-name="Capa 2" xmlns="http://www.w3.org/2000/svg" viewBox="0 0 100.08 57.78">
  <defs>
    <style>
      .cls-1 {
        fill: #27384a;
      }

      .cls-2 {
        fill: #28394a;
      }
    </style>
  </defs>
  <g id="cards_section_2" data-name="cards section 2">
    <g>
      <path class="cls-1" d="M99.55,48.63c-.47.81-4.35,3.52-5.24,4.11-21.73,14.44-39.56-5.83-59.89-14.8-11.53-5.09-21.89-5-32.61,4.16-1.52.54-2.42-2.93-1.36-4.43.46-.64,1.98-1.69,2.62-2.17,20.94-15.64,38.33,1.78,58.03,11.8,12.25,6.23,21.19,8.1,33.31-.27,1.24-.86,3.39-3.37,4.67-2.55.94.61,1.08,3.06.46,4.15Z"/>
      <path class="cls-1" d="M18.95,13.98c13.13-1.18,25.45,8.07,37.54,14.64,12.96,7.04,22.87,11.96,36.31,3.37,1.22-.78,4.37-3.7,5.34-3.85,1.29-.2,2.26,2.12,1.53,3.9-.41.99-2.94,2.81-3.74,3.41-19.31,14.19-34.27,1.02-52.48-8.79-13.83-7.45-23.88-11.41-37.93-1.75-.89.61-2.85,2.64-3.69,2.49-1.35-.25-1.87-3.36-.77-4.61,4.1-4.67,12.86-8.33,17.88-8.79Z"/>
      <path class="cls-2" d="M22.83,0c15.92-.38,31.05,13.83,46.32,19.17,10.65,3.72,19.58,1.59,29.14-6.49.79-.14,1.57.63,1.73,1.88.31,2.42-.91,3.09-2.03,4.03-20.53,17.19-37.15,1.14-56.8-8.26-12.22-5.85-21.55-7.65-33.65.32-1.04.69-2.85,2.49-3.77,2.87-1.71.71-3.05-1.99-1.94-4.03.5-.92,4.02-3.38,4.93-3.98C11.82,2.19,17.32.14,22.83,0Z"/>
    </g>
  </g>
</svg>