<?xml version="1.0" encoding="UTF-8"?>
<svg id="Capa_2" data-name="Capa 2" xmlns="http://www.w3.org/2000/svg" viewBox="0 0 104.37 131.09">
  <defs>
    <style>
      .cls-1 {
        fill: #1e2337;
      }
    </style>
  </defs>
  <g id="cards_section_2" data-name="cards section 2">
    <path class="cls-1" d="M1.03,12.35c5.7-2.42,11.63-4.2,17.61-5.79,6.66-1.77,13.59-3.28,20.5-4.5C42.75,1.42,48.87,0,52.3,0c4.91,0,13.92,2.04,19.04,3.04,9.6,1.87,21.2,4.52,30.16,8.32,1.08.46,2.27.68,2.77,1.89l.11,49.64c-1.59,27.43-20.84,49.02-42.85,63.26-1.58,1.02-7.58,4.82-9.04,4.94-1.19.1-6.78-3.41-8.13-4.26C19.65,111.29,1.37,89.29.21,58.98c-.47-12.2-.04-25.32.27-37.5.06-2.43-.3-5.56-.02-7.86.06-.5.27-.88.58-1.26ZM50.21,4.68c-3.85.44-7.74,1.08-11.56,1.79-2.52.47-5.34.91-7.8,1.51-.73.18-1.66.26-2.2.74v19.48l21.57-4.17V4.68ZM100.21,36.05V15.59c-14.6-5.82-30.3-8.71-45.83-10.91v19.01s.16.37.16.37c15.56,2.57,31.12,5.88,45.67,12ZM50.21,125.5v-29.29c-9.49-5.37-17.45-13.15-21.86-23.24-2.29-5.25-3.29-10.53-3.89-16.21V9.58c-6.75,1.29-13.34,3.57-19.8,5.92.04,16.02-.3,32.1.21,48.11,1.95,27.68,23.04,48.22,45.34,61.88ZM50.21,91.19V28.21l-21.46,4.64c-.04,7.3-.32,14.66-.12,21.96.21,7.63,2.48,15.76,6.68,22.25,3.69,5.7,8.96,10.84,14.9,14.14ZM100.17,40.5c-14.58-6.28-30.21-9.43-45.79-12.29l.25,97.05c.16.18,2.02-1.02,2.33-1.22,17.41-10.77,34.99-27.8,40.73-47.99,3.34-11.74,2.5-23.46,2.48-35.55Z"/>
  </g>
</svg>