<?xml version="1.0" encoding="UTF-8"?>
<svg id="Capa_2" data-name="Capa 2" xmlns="http://www.w3.org/2000/svg" viewBox="0 0 115.16 40.81">
  <defs>
    <style>
      .cls-1 {
        fill: #edf2f4;
      }
    </style>
  </defs>
  <g id="nike_logo_section_6" data-name="nike logo section 6">
    <path class="cls-1" d="M115.16,0l-5.1,2.3c-26.71,10.92-52.83,23.4-79.58,34.21-2.88,1.16-5.82,2.29-8.83,3.07-5.4,1.39-11.92,2.25-16.78-1.13-8.42-5.86-4.26-17.21.11-24.27C8.03,9.28,12,4.9,15.86.63c.19.1-.04.31-.09.42-1.39,3.29-2.87,5.57-3.49,9.3-1.82,11.05,6.66,14.96,16.32,12.9C57.15,16.28,85.24,7.39,113.74.29c.47-.12.93-.28,1.42-.29Z"/>
  </g>
</svg>